TITLE ""
FILE "Step2_Track32.mp3" MP3
  TRACK 01 AUDIO
    TITLE "Step2_Track32_01"
    INDEX 01 00:00:00
  TRACK 02 AUDIO
    TITLE "Step2_Track32_02"
    INDEX 01 00:00:24
  TRACK 03 AUDIO
    TITLE "Step2_Track32_03"
    INDEX 01 00:02:01
  TRACK 04 AUDIO
    TITLE "Step2_Track32_04"
    INDEX 01 00:02:58
  TRACK 05 AUDIO
    TITLE "Step2_Track32_05"
    INDEX 01 00:03:58
  TRACK 06 AUDIO
    TITLE "Step2_Track32_06"
    INDEX 01 00:04:04
  TRACK 07 AUDIO
    TITLE "Step2_Track32_07"
    INDEX 01 00:06:56
  TRACK 08 AUDIO
    TITLE "Step2_Track32_08"
    INDEX 01 00:07:01
  TRACK 09 AUDIO
    TITLE "Step2_Track32_09"
    INDEX 01 00:07:69
  TRACK 10 AUDIO
    TITLE "Step2_Track32_10"
    INDEX 01 00:08:20
  TRACK 11 AUDIO
    TITLE "Step2_Track32_11"
    INDEX 01 00:10:58
  TRACK 12 AUDIO
    TITLE "Step2_Track32_12"
    INDEX 01 00:11:10
  TRACK 13 AUDIO
    TITLE "Step2_Track32_13"
    INDEX 01 00:12:06
  TRACK 14 AUDIO
    TITLE "Step2_Track32_14"
    INDEX 01 00:12:27
  TRACK 15 AUDIO
    TITLE "Step2_Track32_15"
    INDEX 01 00:14:57
  TRACK 16 AUDIO
    TITLE "Step2_Track32_16"
    INDEX 01 00:14:73
  TRACK 17 AUDIO
    TITLE "Step2_Track32_17"
    INDEX 01 00:15:65
  TRACK 18 AUDIO
    TITLE "Step2_Track32_18"
    INDEX 01 00:16:19
  TRACK 19 AUDIO
    TITLE "Step2_Track32_19"
    INDEX 01 00:18:22
  TRACK 20 AUDIO
    TITLE "Step2_Track32_20"
    INDEX 01 00:18:47
  TRACK 21 AUDIO
    TITLE "Step2_Track32_21"
    INDEX 01 00:19:41
  TRACK 22 AUDIO
    TITLE "Step2_Track32_22"
    INDEX 01 00:20:01
  TRACK 23 AUDIO
    TITLE "Step2_Track32_23"
    INDEX 01 00:22:08
  TRACK 24 AUDIO
    TITLE "Step2_Track32_24"
    INDEX 01 00:22:31
  TRACK 25 AUDIO
    TITLE "Step2_Track32_25"
    INDEX 01 00:23:35
  TRACK 26 AUDIO
    TITLE "Step2_Track32_26"
    INDEX 01 00:23:49
  TRACK 27 AUDIO
    TITLE "Step2_Track32_27"
    INDEX 01 00:25:65
  TRACK 28 AUDIO
    TITLE "Step2_Track32_28"
    INDEX 01 00:26:29
  TRACK 29 AUDIO
    TITLE "Step2_Track32_29"
    INDEX 01 00:27:35
  TRACK 30 AUDIO
    TITLE "Step2_Track32_30"
    INDEX 01 00:27:46
  TRACK 31 AUDIO
    TITLE "Step2_Track32_31"
    INDEX 01 00:29:18
  TRACK 32 AUDIO
    TITLE "Step2_Track32_32"
    INDEX 01 00:29:41
  TRACK 33 AUDIO
    TITLE "Step2_Track32_33"
    INDEX 01 00:30:33
  TRACK 34 AUDIO
    TITLE "Step2_Track32_34"
    INDEX 01 00:30:45
  TRACK 35 AUDIO
    TITLE "Step2_Track32_35"
    INDEX 01 00:32:73
  TRACK 36 AUDIO
    TITLE "Step2_Track32_36"
    INDEX 01 00:33:06
  TRACK 37 AUDIO
    TITLE "Step2_Track32_37"
    INDEX 01 00:34:07
  TRACK 38 AUDIO
    TITLE "Step2_Track32_38"
    INDEX 01 00:34:29
  TRACK 39 AUDIO
    TITLE "Step2_Track32_39"
    INDEX 01 00:36:18
  TRACK 40 AUDIO
    TITLE "Step2_Track32_40"
    INDEX 01 00:36:36
  TRACK 41 AUDIO
    TITLE "Step2_Track32_41"
    INDEX 01 00:37:31
  TRACK 42 AUDIO
    TITLE "Step2_Track32_42"
    INDEX 01 00:37:58
  TRACK 43 AUDIO
    TITLE "Step2_Track32_43"
    INDEX 01 00:40:47
